<svg width="1361" height="331" viewBox="0 0 1361 331" fill="none" xmlns="http://www.w3.org/2000/svg">
<path d="M213.214 272.277H97.5907L79.0556 327H0.0609754L112.154 17.1997H199.534L311.627 327H231.749L213.214 272.277ZM193.796 214.024L155.402 100.607L117.45 214.024H193.796ZM421.206 115.612C428.267 104.138 438.417 94.8704 451.657 87.8094C464.896 80.7485 480.048 77.218 497.112 77.218C517.412 77.218 535.8 82.3666 552.275 92.6639C568.751 102.961 581.696 117.671 591.111 136.795C600.82 155.918 605.674 178.131 605.674 203.433C605.674 228.735 600.82 251.095 591.111 270.512C581.696 289.636 568.751 304.493 552.275 315.085C535.8 325.382 517.412 330.53 497.112 330.53C479.753 330.53 464.602 327.147 451.657 320.38C438.711 313.319 428.561 304.052 421.206 292.578V327H345.742V0.429898H421.206V115.612ZM528.886 203.433C528.886 184.604 523.59 169.893 512.999 159.302C502.701 148.416 489.903 142.973 474.605 142.973C459.6 142.973 446.802 148.416 436.211 159.302C425.913 170.188 420.765 185.045 420.765 203.874C420.765 222.704 425.913 237.561 436.211 248.447C446.802 259.332 459.6 264.775 474.605 264.775C489.609 264.775 502.407 259.332 512.999 248.447C523.59 237.267 528.886 222.262 528.886 203.433ZM757.357 330.53C733.232 330.53 711.461 325.382 692.043 315.085C672.92 304.787 657.768 290.077 646.588 270.954C635.703 251.83 630.26 229.47 630.26 203.874C630.26 178.572 635.85 156.36 647.03 137.236C658.21 117.819 673.508 102.961 692.926 92.6639C712.344 82.3666 734.115 77.218 758.24 77.218C782.365 77.218 804.136 82.3666 823.554 92.6639C842.972 102.961 858.271 117.819 869.45 137.236C880.63 156.36 886.22 178.572 886.22 203.874C886.22 229.176 880.483 251.536 869.009 270.954C857.829 290.077 842.383 304.787 822.671 315.085C803.254 325.382 781.482 330.53 757.357 330.53ZM757.357 265.216C771.774 265.216 783.983 259.921 793.986 249.329C804.284 238.738 809.432 223.586 809.432 203.874C809.432 184.162 804.431 169.011 794.428 158.419C784.719 147.828 772.656 142.532 758.24 142.532C743.53 142.532 731.32 147.828 721.611 158.419C711.902 168.716 707.048 183.868 707.048 203.874C707.048 223.586 711.755 238.738 721.17 249.329C730.879 259.921 742.941 265.216 757.357 265.216ZM1169.42 80.7485V327H1093.95V293.46C1086.3 304.346 1075.86 313.172 1062.62 319.939C1049.68 326.412 1035.26 329.648 1019.37 329.648C1000.54 329.648 983.92 325.529 969.504 317.291C955.088 308.759 943.908 296.55 935.964 280.662C928.021 264.775 924.049 246.093 924.049 224.616V80.7485H999.072V214.466C999.072 230.941 1003.34 243.739 1011.87 252.86C1020.4 261.98 1031.88 266.54 1046.29 266.54C1061 266.54 1072.62 261.98 1081.16 252.86C1089.69 243.739 1093.95 230.941 1093.95 214.466V80.7485H1169.42ZM1360.87 263.01V327H1322.48C1295.12 327 1273.79 320.38 1258.49 307.141C1243.19 293.607 1235.54 271.689 1235.54 241.386V143.415H1205.53V80.7485H1235.54V20.7302H1311V80.7485H1360.43V143.415H1311V242.268C1311 249.623 1312.77 254.919 1316.3 258.155C1319.83 261.392 1325.71 263.01 1333.95 263.01H1360.87Z" fill="white" fill-opacity="0.04"/>
</svg>
