<svg width="50" height="50" viewBox="0 0 20 20" fill="none" xmlns="http://www.w3.org/2000/svg">
<circle cx="10" cy="10" r="10" fill="#F66E21"/>
<path d="M8.66662 14.6667C8.51085 14.667 8.35989 14.6127 8.23995 14.5133C8.17245 14.4574 8.11665 14.3886 8.07574 14.3111C8.03484 14.2335 8.00965 14.1486 8.00159 14.0613C7.99354 13.974 8.0028 13.886 8.02883 13.8022C8.05486 13.7185 8.09715 13.6407 8.15329 13.5733L11.14 10L8.25995 6.42C8.20458 6.35181 8.16322 6.27335 8.13827 6.18912C8.11331 6.10489 8.10525 6.01657 8.11454 5.92921C8.12384 5.84186 8.1503 5.75721 8.19242 5.68011C8.23453 5.60302 8.29147 5.53502 8.35995 5.48C8.42893 5.41931 8.50971 5.37353 8.59722 5.34554C8.68472 5.31755 8.77707 5.30794 8.86847 5.31733C8.95986 5.32672 9.04833 5.3549 9.12832 5.4001C9.20831 5.44531 9.27809 5.50655 9.33329 5.58L12.5533 9.58C12.6513 9.69929 12.7049 9.84892 12.7049 10.0033C12.7049 10.1578 12.6513 10.3074 12.5533 10.4267L9.21995 14.4267C9.15307 14.5073 9.06812 14.5711 8.97198 14.6128C8.87584 14.6545 8.77122 14.673 8.66662 14.6667Z" fill="white"/>
</svg>
