<svg width="30" height="31" viewBox="0 0 30 31" fill="none" xmlns="http://www.w3.org/2000/svg">
<circle cx="15" cy="15.5" r="15" fill="white"/>
<path d="M13.0001 22.4999C12.7664 22.5004 12.54 22.419 12.3601 22.2699C12.2588 22.186 12.1751 22.0829 12.1137 21.9665C12.0524 21.8502 12.0146 21.7229 12.0025 21.5919C11.9904 21.4609 12.0043 21.3289 12.0434 21.2033C12.0824 21.0777 12.1458 20.961 12.2301 20.8599L16.7101 15.4999L12.3901 10.1299C12.307 10.0277 12.245 9.90996 12.2075 9.78362C12.1701 9.65728 12.158 9.52479 12.1719 9.39376C12.1859 9.26273 12.2256 9.13575 12.2887 9.02011C12.3519 8.90447 12.4373 8.80246 12.5401 8.71994C12.6435 8.6289 12.7647 8.56024 12.8959 8.51825C13.0272 8.47626 13.1657 8.46185 13.3028 8.47594C13.4399 8.49002 13.5726 8.53229 13.6926 8.6001C13.8126 8.6679 13.9173 8.75977 14.0001 8.86994L18.8301 14.8699C18.9771 15.0489 19.0575 15.2733 19.0575 15.5049C19.0575 15.7366 18.9771 15.961 18.8301 16.1399L13.8301 22.1399C13.7297 22.261 13.6023 22.3566 13.4581 22.4192C13.3139 22.4817 13.157 22.5094 13.0001 22.4999Z" fill="#010253"/>
</svg>
