<svg width="847" height="802" viewBox="0 0 847 802" fill="none" xmlns="http://www.w3.org/2000/svg">
<path fill-rule="evenodd" clip-rule="evenodd" d="M603.679 -158.19C727.684 -129.309 826.363 -57.5951 920.077 28.5665C1019.95 120.39 1110.54 266.002 1103.63 401.467C1096.8 535.432 950.468 607.796 842.204 687.052C756.105 750.083 663.224 801.828 556.505 801.999C449.608 802.172 349.529 759.245 269.884 687.973C185.012 612.025 139.541 511.14 108.912 401.467C61.1809 230.557 -70.0971 25.6293 47.8781 -106.958C165.02 -238.608 432.017 -198.171 603.679 -158.19Z" fill="#F78253"/>
<path fill-rule="evenodd" clip-rule="evenodd" d="M487.378 514.312C428.245 479.924 427.606 393.991 384.093 340.665C343.644 291.092 258.782 279.664 244.532 216.694C230.262 153.632 278.289 93.3188 316.281 40.9954C350.613 -6.28629 399.107 -36.0789 449.22 -65.2018C505.025 -97.6327 559.309 -140.257 623.23 -137.387C692.22 -134.289 765.818 -106.703 805.247 -49.2163C843.553 6.63284 817.432 81.9466 820.522 150.259C823.371 213.255 840.239 274.233 822.617 334.859C801.071 408.982 777.299 494.244 710.073 530.23C642.266 566.527 553.437 552.726 487.378 514.312Z" fill="#010253"/>
</svg>
