<svg width="29" height="24" viewBox="0 0 29 24" fill="none" xmlns="http://www.w3.org/2000/svg">
<path d="M11.9441 18.9999C11.665 19.0004 11.3945 18.919 11.1796 18.7699C11.0587 18.686 10.9587 18.5829 10.8854 18.4665C10.8122 18.3502 10.767 18.2229 10.7526 18.0919C10.7382 17.9609 10.7548 17.8289 10.8014 17.7033C10.848 17.5777 10.9238 17.461 11.0244 17.3599L16.3753 11.9999L11.2155 6.62994C11.1163 6.52765 11.0422 6.40996 10.9975 6.28362C10.9528 6.15728 10.9383 6.02479 10.955 5.89376C10.9716 5.76273 11.019 5.63575 11.0945 5.52011C11.1699 5.40447 11.2719 5.30246 11.3946 5.21994C11.5182 5.1289 11.6629 5.06024 11.8197 5.01825C11.9765 4.97626 12.1419 4.96185 12.3057 4.97594C12.4694 4.99002 12.6279 5.03229 12.7712 5.1001C12.9145 5.1679 13.0396 5.25977 13.1385 5.36994L18.9074 11.3699C19.0831 11.5489 19.1791 11.7733 19.1791 12.0049C19.1791 12.2366 19.0831 12.461 18.9074 12.6399L12.9354 18.6399C12.8156 18.761 12.6634 18.8566 12.4911 18.9192C12.3189 18.9817 12.1315 19.0094 11.9441 18.9999Z" fill="white"/>
</svg>
