<svg xmlns="http://www.w3.org/2000/svg" viewBox="0 0 117.67 70.18"><defs><style>.cls-1{fill:#2e3192;}.cls-2{fill:#231f20;}.cls-3{fill:none;}</style></defs><title>Fichier 7bm5</title><g id="Calque_2" data-name="Calque 2"><g id="Calque_1-2" data-name="Calque 1"><path class="cls-1" d="M16.4,33.41l-1.27-.5A5.14,5.14,0,0,1,13,31.43,5.71,5.71,0,0,1,11.86,29l3.32-1.46a3.56,3.56,0,0,0,1.18,1.8,3.11,3.11,0,0,0,1.94.62,2.93,2.93,0,0,0,1.83-.52A1.75,1.75,0,0,0,20.79,28v-.88A1.59,1.59,0,0,0,20.4,26a2.42,2.42,0,0,0-1-.69,16.77,16.77,0,0,0-1.61-.56l-.07,0,0,0-.18,0a17,17,0,0,1-2.66-1A4.61,4.61,0,0,1,13.07,22a5.2,5.2,0,0,1-.72-2.91v-.54a5.72,5.72,0,0,1,.72-2.94,4.64,4.64,0,0,1,2.08-1.88,7.89,7.89,0,0,1,3.32-.64,6.79,6.79,0,0,1,2.61.47A4.72,4.72,0,0,1,23,15a6.48,6.48,0,0,1,1.13,2.36l-3.15,1.48a4,4,0,0,0-1.08-1.71,2.39,2.39,0,0,0-1.59-.59,2.73,2.73,0,0,0-1.76.49,1.61,1.61,0,0,0-.62,1.33V19a1.76,1.76,0,0,0,.41,1.2,3,3,0,0,0,1,.72,17.45,17.45,0,0,0,1.67.61l.18.05.16.06.13,0,.12,0a13.85,13.85,0,0,1,2.47,1,4.54,4.54,0,0,1,1.64,1.57,5.19,5.19,0,0,1,.66,2.79V28a5.63,5.63,0,0,1-.74,2.94,4.74,4.74,0,0,1-2.14,1.88,8,8,0,0,1-3.37.64Z"/><path class="cls-1" d="M30.6,33.41l-1.34-.73a4.91,4.91,0,0,1-2.05-2.13,7.39,7.39,0,0,1-.71-3.37V19.37A7.44,7.44,0,0,1,27.21,16a4.88,4.88,0,0,1,2.05-2.14,6.64,6.64,0,0,1,3.23-.73,6.17,6.17,0,0,1,3.13.74,4.85,4.85,0,0,1,2,2.23,10.62,10.62,0,0,1,.85,3.8H34.77a5.94,5.94,0,0,0-.36-1.79,2.23,2.23,0,0,0-.77-1,1.93,1.93,0,0,0-1.15-.34,2.49,2.49,0,0,0-1.25.3,2.1,2.1,0,0,0-.8.91,3.49,3.49,0,0,0-.28,1.44v7.81a3.41,3.41,0,0,0,.28,1.43,2.13,2.13,0,0,0,.8.9,2.49,2.49,0,0,0,1.25.3,1.94,1.94,0,0,0,1.16-.34,2.37,2.37,0,0,0,.77-1,5.67,5.67,0,0,0,.35-1.79h3.67a10.61,10.61,0,0,1-.86,3.8,4.9,4.9,0,0,1-2,2.23,6.11,6.11,0,0,1-3.12.74Z"/><path class="cls-1" d="M16.14,49.9a2.55,2.55,0,0,0-.81,2,2.09,2.09,0,0,0,.72,1.7,3.07,3.07,0,0,0,2,.6,3.17,3.17,0,0,0,2.25-.88,5.64,5.64,0,0,0,1.43-2.54,14.15,14.15,0,0,0,.49-3.93h3.4a15.18,15.18,0,0,1-.95,5.68,7.68,7.68,0,0,1-2.79,3.62,7.69,7.69,0,0,1-4.42,1.25,6.47,6.47,0,0,1-3-.64,4.39,4.39,0,0,1-1.91-1.88,6.27,6.27,0,0,1-.66-3,5.12,5.12,0,0,1,1.4-3.75,6.08,6.08,0,0,1,4-1.63l1.15,2.66A3.32,3.32,0,0,0,16.14,49.9Zm.52-.57A24.31,24.31,0,0,1,15,46.89a10.88,10.88,0,0,1-1-2.26,8.46,8.46,0,0,1-.35-2.41,5,5,0,0,1,1.35-3.73,5.13,5.13,0,0,1,3.78-1.33,5.13,5.13,0,0,1,3.74,1.29,4.84,4.84,0,0,1,1.33,3.63V43.2H20.39V42.08A2.49,2.49,0,0,0,20,40.57,1.33,1.33,0,0,0,18.86,40a1.49,1.49,0,0,0-1.25.58,2.55,2.55,0,0,0-.45,1.61,5.41,5.41,0,0,0,.3,1.71,10.06,10.06,0,0,0,.88,1.87,23.26,23.26,0,0,0,1.39,2L26.9,57.2H22.71Z"/><path class="cls-2" d="M34,46.93l-.79-.4A2.78,2.78,0,0,1,32,45.38a3.86,3.86,0,0,1-.41-1.83V40.94A3.9,3.9,0,0,1,32,39.1a2.82,2.82,0,0,1,1.2-1.17,4.12,4.12,0,0,1,1.89-.4,4.21,4.21,0,0,1,1.6.27,2.31,2.31,0,0,1,1.06.83,3.21,3.21,0,0,1,.52,1.43l-2.11.71a1.5,1.5,0,0,0-.38-.84,1,1,0,0,0-.71-.27,1.11,1.11,0,0,0-.86.35,1.45,1.45,0,0,0-.32,1v2.43a1.39,1.39,0,0,0,.31,1,1.09,1.09,0,0,0,.87.35,1,1,0,0,0,.71-.26,1.58,1.58,0,0,0,.39-.8l2.11.74a3.12,3.12,0,0,1-.53,1.38,2.32,2.32,0,0,1-1.05.82,4.49,4.49,0,0,1-1.61.26Z"/><path class="cls-2" d="M33.09,57.55A2.58,2.58,0,0,1,32,56.45a3.68,3.68,0,0,1-.39-1.75v-3A3.53,3.53,0,0,1,32,50a2.56,2.56,0,0,1,1.14-1.09,4.45,4.45,0,0,1,3.6,0A2.56,2.56,0,0,1,37.83,50a3.53,3.53,0,0,1,.39,1.72v3a3.53,3.53,0,0,1-.39,1.72,2.58,2.58,0,0,1-1.14,1.1,4.45,4.45,0,0,1-3.6,0Zm2.58-2.06a1.24,1.24,0,0,0,.28-.85V51.79a1.21,1.21,0,0,0-.28-.84,1.18,1.18,0,0,0-1.56,0,1.18,1.18,0,0,0-.27.83v2.85a1.22,1.22,0,0,0,.27.85,1.16,1.16,0,0,0,1.56,0Z"/><rect class="cls-3" y="35.09" width="15" height="20.09"/><rect class="cls-2" x="6.74" y="39.73" width="1.5" height="10.82"/><rect class="cls-2" x="6.76" y="52.18" width="1.5" height="2.16"/><rect class="cls-2" x="6.76" y="35.95" width="1.5" height="2.16"/><rect class="cls-3" y="15" width="15" height="20.09"/><rect class="cls-2" x="6.74" y="19.64" width="1.5" height="10.82"/><rect class="cls-2" x="6.76" y="32.09" width="1.5" height="2.16"/><rect class="cls-2" x="6.76" y="15.86" width="1.5" height="2.16"/><rect class="cls-3" x="15" width="21.57" height="15"/><rect class="cls-2" x="19.97" y="6.74" width="11.62" height="1.5"/><rect class="cls-2" x="15.89" y="6.76" width="2.32" height="1.5"/><rect class="cls-2" x="33.32" y="6.76" width="2.32" height="1.5"/><rect class="cls-3" x="36.57" y="15" width="15" height="20.09"/><rect class="cls-2" x="43.32" y="19.63" width="1.5" height="10.82"/><rect class="cls-2" x="43.31" y="15.83" width="1.5" height="2.16"/><rect class="cls-2" x="43.31" y="32.07" width="1.5" height="2.16"/><rect class="cls-3" x="36.57" y="35.09" width="15" height="20.09"/><rect class="cls-2" x="43.32" y="39.72" width="1.5" height="10.82"/><rect class="cls-2" x="43.31" y="35.92" width="1.5" height="2.16"/><rect class="cls-2" x="43.31" y="52.16" width="1.5" height="2.16"/><rect class="cls-3" x="15" y="55.18" width="21.57" height="15"/><rect class="cls-2" x="19.98" y="61.93" width="11.62" height="1.5"/><rect class="cls-2" x="33.35" y="61.92" width="2.32" height="1.5"/><rect class="cls-2" x="15.92" y="61.92" width="2.32" height="1.5"/><polygon class="cls-2" points="14.2 8.23 14.2 6.73 6.74 6.73 6.74 14.25 8.24 14.25 8.24 8.23 14.2 8.23"/><polygon class="cls-2" points="43.33 14.2 44.83 14.2 44.83 6.74 37.31 6.74 37.31 8.24 43.33 8.24 43.33 14.2"/><polygon class="cls-2" points="37.37 61.95 37.37 63.45 44.83 63.45 44.83 55.92 43.32 55.92 43.32 61.95 37.37 61.95"/><polygon class="cls-2" points="8.23 55.98 6.73 55.98 6.73 63.44 14.25 63.44 14.25 61.94 8.23 61.94 8.23 55.98"/><path class="cls-2" d="M55.37,24.47l-.83-.18A6.51,6.51,0,0,1,53,23.76a6.08,6.08,0,0,1-1.34-.88l.94-1.18a5.28,5.28,0,0,0,1.69,1,5.87,5.87,0,0,0,2,.33,4,4,0,0,0,2.35-.58,1.86,1.86,0,0,0,.83-1.64h0a1.61,1.61,0,0,0-.37-1.12,2.17,2.17,0,0,0-1-.61,9.4,9.4,0,0,0-1.51-.38h-.11l-.19,0a16,16,0,0,1-2.13-.51,2.82,2.82,0,0,1-1.94-2.94h0a3.68,3.68,0,0,1,.53-2,3.35,3.35,0,0,1,1.55-1.28,6.24,6.24,0,0,1,2.45-.44,6,6,0,0,1,1.34.15,6.55,6.55,0,0,1,1.31.45,7.28,7.28,0,0,1,1.28.74L59.85,14a6.66,6.66,0,0,0-1.54-.83,4.42,4.42,0,0,0-1.51-.27,3.7,3.7,0,0,0-2.23.58,2,2,0,0,0-.79,1.67h0a1.43,1.43,0,0,0,.4,1.09,2.38,2.38,0,0,0,1,.59,14.36,14.36,0,0,0,1.65.4l.07,0H57l.1,0,.1,0a11.67,11.67,0,0,1,2,.56,3.15,3.15,0,0,1,1.32,1,3.1,3.1,0,0,1,.53,1.9v0a3.53,3.53,0,0,1-.56,2A3.46,3.46,0,0,1,58.83,24a6.64,6.64,0,0,1-2.54.44Z"/><path class="cls-2" d="M62.65,15.21h4.12v1.35H62.65Zm1.46,8.56A2.77,2.77,0,0,1,63.6,22v-9.4h1.52V22a1.11,1.11,0,0,0,.2.71.73.73,0,0,0,.59.25h.86v1.44h-1A2,2,0,0,1,64.11,23.77Z"/><path class="cls-2" d="M69.65,23.75a2.6,2.6,0,0,1-.86-2.11,2.53,2.53,0,0,1,.79-2,3.35,3.35,0,0,1,2.29-.69h2.81l.12,1.31H71.87a1.85,1.85,0,0,0-1.2.35,1.33,1.33,0,0,0-.41,1,1.26,1.26,0,0,0,.53,1.12,2.66,2.66,0,0,0,1.55.38A4.79,4.79,0,0,0,74,22.91c.39-.15.58-.38.58-.68l.18,1.24a2.14,2.14,0,0,1-.64.55,3.23,3.23,0,0,1-.89.34,5.32,5.32,0,0,1-1.1.11A3.78,3.78,0,0,1,69.65,23.75Zm4.95-5.2A2.1,2.1,0,0,0,74.06,17a2,2,0,0,0-1.52-.56,3.59,3.59,0,0,0-1.17.19,3.53,3.53,0,0,0-1,.53l-1.11-.76a3.34,3.34,0,0,1,1.36-1,5,5,0,0,1,1.89-.35,4.28,4.28,0,0,1,1.94.4,2.77,2.77,0,0,1,1.23,1.16,3.75,3.75,0,0,1,.42,1.83v5.86H74.6Z"/><path class="cls-2" d="M78.81,15.21h1.53v9.12H78.81Zm4.54,1.46a2.55,2.55,0,0,0-.91-.15,2.1,2.1,0,0,0-1.55.54,2,2,0,0,0-.55,1.5l-.19-1.76a3.5,3.5,0,0,1,1.2-1.27A3.1,3.1,0,0,1,83,15.08a3.31,3.31,0,0,1,1.13.18,2.67,2.67,0,0,1,.89.53l-1,1.32A1.6,1.6,0,0,0,83.35,16.67Z"/><path class="cls-2" d="M85.79,15.21H89.9v1.35H85.79Zm1.45,8.56A2.77,2.77,0,0,1,86.73,22v-9.4h1.53V22a1.06,1.06,0,0,0,.2.71.7.7,0,0,0,.58.25h.86v1.44h-1A2,2,0,0,1,87.24,23.77Z"/><path class="cls-2" d="M55.31,41.47l-1-.59a4.06,4.06,0,0,1-1.56-1.67,5.43,5.43,0,0,1-.55-2.51V33.2a5.43,5.43,0,0,1,.55-2.51A4,4,0,0,1,54.3,29a4.47,4.47,0,0,1,2.33-.6,4.58,4.58,0,0,1,2,.46,4.27,4.27,0,0,1,1.54,1.3,4.9,4.9,0,0,1,.84,2H59.49a3.21,3.21,0,0,0-1.65-2,2.86,2.86,0,0,0-1.21-.28,2.75,2.75,0,0,0-1.52.42,2.69,2.69,0,0,0-1,1.16,3.92,3.92,0,0,0-.36,1.74v3.5a4,4,0,0,0,.36,1.74,2.69,2.69,0,0,0,1,1.16,3,3,0,0,0,2.74.14,2.87,2.87,0,0,0,1-.77,3.11,3.11,0,0,0,.63-1.21H61a4.78,4.78,0,0,1-.85,2A4.29,4.29,0,0,1,58.65,41a4.57,4.57,0,0,1-2,.46Z"/><path class="cls-2" d="M63.41,32.21h1.53v9.12H63.41ZM68,33.67a2.52,2.52,0,0,0-.91-.15,2.12,2.12,0,0,0-1.55.54,2,2,0,0,0-.55,1.5l-.18-1.76A3.34,3.34,0,0,1,66,32.53a3.05,3.05,0,0,1,1.63-.45,3.39,3.39,0,0,1,1.13.18,2.62,2.62,0,0,1,.88.53l-1,1.32A1.63,1.63,0,0,0,68,33.67Z"/><path class="cls-2" d="M73.39,41.47l-.9-.48a3.25,3.25,0,0,1-1.37-1.4,4.84,4.84,0,0,1-.47-2.21v-1A5.26,5.26,0,0,1,71.11,34a3.22,3.22,0,0,1,1.31-1.46,4.09,4.09,0,0,1,2.07-.5,3.46,3.46,0,0,1,2,.53,3.35,3.35,0,0,1,1.24,1.54,6.38,6.38,0,0,1,.43,2.44v.82H71.73V36.12h4.93v0a3,3,0,0,0-.6-1.92,1.91,1.91,0,0,0-1.57-.68,2.21,2.21,0,0,0-1.77.72,3,3,0,0,0-.63,2v1.16a2.67,2.67,0,0,0,.67,1.94,2.55,2.55,0,0,0,1.89.67,3.06,3.06,0,0,0,1.17-.24,3.24,3.24,0,0,0,1-.68l1,1a4.88,4.88,0,0,1-1.51,1,4.34,4.34,0,0,1-1.71.36Z"/><path class="cls-2" d="M81,40.75a2.6,2.6,0,0,1-.86-2.11,2.56,2.56,0,0,1,.78-2,3.39,3.39,0,0,1,2.29-.69H86l.12,1.31H83.21a1.83,1.83,0,0,0-1.2.35,1.29,1.29,0,0,0-.41,1,1.26,1.26,0,0,0,.53,1.12,2.66,2.66,0,0,0,1.55.38,4.79,4.79,0,0,0,1.68-.23c.38-.15.58-.38.58-.68l.18,1.24a2.14,2.14,0,0,1-.64.55,3.23,3.23,0,0,1-.89.34,5.32,5.32,0,0,1-1.1.11A3.78,3.78,0,0,1,81,40.75Zm5-5.2A2.1,2.1,0,0,0,85.4,34a2,2,0,0,0-1.52-.56,3.59,3.59,0,0,0-1.17.19,3.4,3.4,0,0,0-1,.53l-1.11-.76a3.34,3.34,0,0,1,1.36-1,5,5,0,0,1,1.89-.35,4.31,4.31,0,0,1,1.94.4A2.77,2.77,0,0,1,87,33.64a3.75,3.75,0,0,1,.42,1.83v5.86H85.94Z"/><path class="cls-2" d="M89.44,32.21h4.12v1.35H89.44Zm1.46,8.56A2.77,2.77,0,0,1,90.38,39v-9.4h1.53V39a1.11,1.11,0,0,0,.2.71.73.73,0,0,0,.59.25h.86v1.44h-1A2,2,0,0,1,90.9,40.77Z"/><path class="cls-2" d="M96.15,28.55h1.53v1.53H96.15Zm0,3.66h1.53v9.12H96.15Z"/><path class="cls-2" d="M102,41a3,3,0,0,1-1.28-1.36,4.71,4.71,0,0,1-.45-2.15V36a4.58,4.58,0,0,1,.45-2.12A3,3,0,0,1,102,32.54a4.71,4.71,0,0,1,4.06,0,3,3,0,0,1,1.29,1.35A4.58,4.58,0,0,1,107.8,36v1.51a4.65,4.65,0,0,1-.45,2.13A3,3,0,0,1,106.06,41,4.62,4.62,0,0,1,102,41Zm3.68-1.63a2.69,2.69,0,0,0,.59-1.85V36a2.66,2.66,0,0,0-.59-1.84,2.42,2.42,0,0,0-3.3,0A2.66,2.66,0,0,0,101.8,36v1.51a2.68,2.68,0,0,0,.58,1.85,2.42,2.42,0,0,0,3.3,0Z"/><path class="cls-2" d="M110.34,32.21h1.53v9.12h-1.53Zm5.81,3.6a2.35,2.35,0,0,0-.57-1.69,2.1,2.1,0,0,0-1.61-.6,2.17,2.17,0,0,0-1.55.53,2,2,0,0,0-.55,1.49l-.18-1.76a3,3,0,0,1,1.19-1.28,3.35,3.35,0,0,1,1.68-.42,2.82,2.82,0,0,1,2.3,1,4.18,4.18,0,0,1,.81,2.75v5.53h-1.52Z"/><path class="cls-2" d="M54.16,53.07a2.2,2.2,0,0,0-.67,1.73,2.12,2.12,0,0,0,.7,1.71,3,3,0,0,0,2,.61,3.43,3.43,0,0,0,2-.6,3.62,3.62,0,0,0,1.28-1.75,8.13,8.13,0,0,0,.44-2.83h1.44a9.2,9.2,0,0,1-.61,3.58,4.5,4.5,0,0,1-1.85,2.19,5.88,5.88,0,0,1-3.13.76,4.52,4.52,0,0,1-2-.43,3,3,0,0,1-1.3-1.26,4.17,4.17,0,0,1-.44-2,3.56,3.56,0,0,1,.86-2.5,3.64,3.64,0,0,1,2.44-1.09l.74,1.24A2.67,2.67,0,0,0,54.16,53.07Zm1.3.36A10.11,10.11,0,0,1,54.25,52a6.09,6.09,0,0,1-.74-1.46A4.83,4.83,0,0,1,53.26,49a3.56,3.56,0,0,1,.9-2.6,3.41,3.41,0,0,1,5.94,2.46v.09H58.57v-.09a1.94,1.94,0,0,0-.49-1.4,1.89,1.89,0,0,0-1.39-.5,1.83,1.83,0,0,0-1.41.54,2.1,2.1,0,0,0-.49,1.5A3.28,3.28,0,0,0,55,50.11a4.63,4.63,0,0,0,.61,1.13,10.18,10.18,0,0,0,1,1.19l5.71,5.9h-2Z"/><path class="cls-2" d="M71.87,58.47l-1-.59a4.06,4.06,0,0,1-1.56-1.67,5.43,5.43,0,0,1-.56-2.51V50.2a5.43,5.43,0,0,1,.56-2.51A4,4,0,0,1,70.87,46a4.47,4.47,0,0,1,2.33-.6,4.54,4.54,0,0,1,2,.46,4.22,4.22,0,0,1,1.55,1.3,4.9,4.9,0,0,1,.84,2H76.06a3.21,3.21,0,0,0-1.65-2,2.86,2.86,0,0,0-1.21-.28,2.73,2.73,0,0,0-1.52.42,2.69,2.69,0,0,0-1,1.16,3.92,3.92,0,0,0-.36,1.74v3.5a4,4,0,0,0,.36,1.74,2.69,2.69,0,0,0,1,1.16A3,3,0,0,0,75.43,56a3.11,3.11,0,0,0,.63-1.21h1.55a4.78,4.78,0,0,1-.85,2A4.24,4.24,0,0,1,75.21,58a4.5,4.5,0,0,1-2,.46Z"/><path class="cls-2" d="M81.45,58a3,3,0,0,1-1.29-1.36,4.71,4.71,0,0,1-.45-2.15V53a4.58,4.58,0,0,1,.45-2.12,3,3,0,0,1,1.29-1.35,4.71,4.71,0,0,1,4.06,0,3,3,0,0,1,1.28,1.35A4.58,4.58,0,0,1,87.24,53v1.51a4.65,4.65,0,0,1-.45,2.13A3,3,0,0,1,85.51,58a4.62,4.62,0,0,1-4.06,0Zm3.67-1.63a2.69,2.69,0,0,0,.59-1.85V53a2.66,2.66,0,0,0-.59-1.84,2.42,2.42,0,0,0-3.3,0A2.7,2.7,0,0,0,81.24,53v1.51a2.73,2.73,0,0,0,.58,1.85,2.42,2.42,0,0,0,3.3,0Z"/><path class="cls-2" d="M89.24,56.67h1.65v1.66H89.24Z"/></g></g></svg>